<svg width="104" height="18" viewBox="0 0 104 18" fill="none" xmlns="http://www.w3.org/2000/svg">
<path d="M17.806 6.35858H11.729L9.88202 0.847578C9.83481 0.719006 9.74927 0.608022 9.63696 0.529621C9.52466 0.45122 9.39099 0.40918 9.25402 0.40918C9.11705 0.40918 8.98339 0.45122 8.87108 0.529621C8.75877 0.608022 8.67323 0.719006 8.62602 0.847578L6.77902 6.35858H0.661022C0.485876 6.35911 0.318054 6.42892 0.194207 6.55276C0.0703594 6.67661 0.000549073 6.84443 2.15219e-05 7.01958C-0.000333026 7.05725 0.0036941 7.09484 0.0120216 7.13158C0.0207968 7.22506 0.0501917 7.31543 0.0980898 7.39618C0.145988 7.47693 0.211197 7.54606 0.289022 7.59858L5.28402 11.1186L3.36702 16.6906C3.32166 16.8227 3.31918 16.9658 3.35995 17.0994C3.40071 17.233 3.48263 17.3503 3.59402 17.4346C3.69726 17.5272 3.82783 17.5837 3.96602 17.5956C4.11478 17.5849 4.2577 17.5333 4.37902 17.4466L9.25002 13.9726L14.125 17.4466C14.2454 17.5351 14.3889 17.5868 14.538 17.5956C14.6757 17.5863 14.8058 17.5294 14.906 17.4346C15.0184 17.3511 15.1011 17.2338 15.1419 17.0999C15.1828 16.966 15.1797 16.8226 15.133 16.6906L13.22 11.1176L18.173 7.56458L18.293 7.46458C18.4163 7.34846 18.4928 7.19123 18.508 7.02258C18.4988 6.84289 18.4207 6.67367 18.29 6.55002C18.1593 6.42638 17.9859 6.35783 17.806 6.35858Z" fill="#25333C"/>
<path d="M39.0631 6.35858H32.9861L31.1391 0.847578C31.0919 0.719006 31.0064 0.608022 30.894 0.529621C30.7817 0.45122 30.6481 0.40918 30.5111 0.40918C30.3741 0.40918 30.2405 0.45122 30.1282 0.529621C30.0159 0.608022 29.9303 0.719006 29.8831 0.847578L28.0361 6.35858H21.9181C21.743 6.35911 21.5751 6.42892 21.4513 6.55276C21.3274 6.67661 21.2576 6.84443 21.2571 7.01958C21.2567 7.05725 21.2608 7.09484 21.2691 7.13158C21.2779 7.22506 21.3073 7.31543 21.3552 7.39618C21.4031 7.47693 21.4683 7.54606 21.5461 7.59858L26.5411 11.1186L24.6241 16.6906C24.5787 16.8227 24.5763 16.9658 24.617 17.0994C24.6578 17.233 24.7397 17.3503 24.8511 17.4346C24.9543 17.5272 25.0849 17.5837 25.2231 17.5956C25.3719 17.5849 25.5148 17.5333 25.6361 17.4466L30.5071 13.9726L35.3821 17.4466C35.5025 17.5351 35.6459 17.5868 35.7951 17.5956C35.9327 17.5863 36.0629 17.5294 36.1631 17.4346C36.2755 17.3511 36.3582 17.2338 36.399 17.0999C36.4399 16.966 36.4367 16.8226 36.3901 16.6906L34.4771 11.1176L39.4301 7.56458L39.5501 7.46458C39.6734 7.34846 39.7498 7.19123 39.7651 7.02258C39.7558 6.84289 39.6778 6.67367 39.547 6.55002C39.4163 6.42638 39.243 6.35783 39.0631 6.35858Z" fill="#25333C"/>
<g opacity="0.2">
<path opacity="0.2" d="M60.3199 6.35858H54.2429L52.3959 0.847578C52.3487 0.719006 52.2632 0.608022 52.1509 0.529621C52.0386 0.45122 51.9049 0.40918 51.7679 0.40918C51.631 0.40918 51.4973 0.45122 51.385 0.529621C51.2727 0.608022 51.1872 0.719006 51.1399 0.847578L49.2929 6.35858H43.1749C42.9998 6.35911 42.832 6.42892 42.7081 6.55276C42.5843 6.67661 42.5145 6.84443 42.5139 7.01958C42.5136 7.05725 42.5176 7.09484 42.5259 7.13158C42.5347 7.22506 42.5641 7.31543 42.612 7.39618C42.6599 7.47693 42.7251 7.54606 42.8029 7.59858L47.7979 11.1186L45.8809 16.6906C45.8356 16.8227 45.8331 16.9658 45.8739 17.0994C45.9146 17.233 45.9965 17.3503 46.1079 17.4346C46.2112 17.5272 46.3418 17.5837 46.4799 17.5956C46.6287 17.5849 46.7716 17.5333 46.8929 17.4466L51.7639 13.9726L56.6389 17.4466C56.7593 17.5351 56.9028 17.5868 57.0519 17.5956C57.1896 17.5863 57.3197 17.5294 57.4199 17.4346C57.5323 17.3511 57.615 17.2338 57.6558 17.0999C57.6967 16.966 57.6936 16.8226 57.6469 16.6906L55.7339 11.1176L60.6869 7.56458L60.8069 7.46458C60.9302 7.34846 61.0067 7.19123 61.0219 7.02258C61.0127 6.84289 60.9346 6.67367 60.8039 6.55002C60.6732 6.42638 60.4999 6.35783 60.3199 6.35858Z" fill="#25333C"/>
</g>
<g opacity="0.2">
<path opacity="0.2" d="M81.578 6.35858H75.501L73.654 0.847578C73.6068 0.719006 73.5212 0.608022 73.4089 0.529621C73.2966 0.45122 73.163 0.40918 73.026 0.40918C72.889 0.40918 72.7554 0.45122 72.6431 0.529621C72.5307 0.608022 72.4452 0.719006 72.398 0.847578L70.551 6.35858H64.433C64.2578 6.35911 64.09 6.42892 63.9662 6.55276C63.8423 6.67661 63.7725 6.84443 63.772 7.01958C63.7716 7.05725 63.7757 7.09484 63.784 7.13158C63.7928 7.22506 63.8222 7.31543 63.8701 7.39618C63.918 7.47693 63.9832 7.54606 64.061 7.59858L69.056 11.1186L67.139 16.6906C67.0936 16.8227 67.0912 16.9658 67.1319 17.0994C67.1727 17.233 67.2546 17.3503 67.366 17.4346C67.4692 17.5272 67.5998 17.5837 67.738 17.5956C67.8868 17.5849 68.0297 17.5333 68.151 17.4466L73.022 13.9726L77.897 17.4466C78.0174 17.5351 78.1608 17.5868 78.31 17.5956C78.4476 17.5863 78.5777 17.5294 78.678 17.4346C78.7904 17.3511 78.873 17.2338 78.9139 17.0999C78.9547 16.966 78.9516 16.8226 78.905 16.6906L76.992 11.1176L81.945 7.56458L82.065 7.46458C82.1883 7.34846 82.2647 7.19123 82.28 7.02258C82.2707 6.84289 82.1927 6.67367 82.0619 6.55002C81.9312 6.42638 81.7579 6.35783 81.578 6.35858Z" fill="#25333C"/>
</g>
<g opacity="0.2">
<path opacity="0.2" d="M102.835 6.35858H96.7581L94.9111 0.847578C94.8639 0.719006 94.7783 0.608022 94.666 0.529621C94.5537 0.45122 94.42 0.40918 94.2831 0.40918C94.1461 0.40918 94.0124 0.45122 93.9001 0.529621C93.7878 0.608022 93.7023 0.719006 93.6551 0.847578L91.8081 6.35858H85.6901C85.5149 6.35911 85.3471 6.42892 85.2233 6.55276C85.0994 6.67661 85.0296 6.84443 85.0291 7.01958C85.0287 7.05725 85.0327 7.09484 85.0411 7.13158C85.0498 7.22506 85.0792 7.31543 85.1271 7.39618C85.175 7.47693 85.2402 7.54606 85.3181 7.59858L90.3131 11.1186L88.3961 16.6906C88.3507 16.8227 88.3482 16.9658 88.389 17.0994C88.4298 17.233 88.5117 17.3503 88.6231 17.4346C88.7263 17.5272 88.8569 17.5837 88.9951 17.5956C89.1438 17.5849 89.2868 17.5333 89.4081 17.4466L94.2791 13.9726L99.1541 17.4466C99.2745 17.5351 99.4179 17.5868 99.5671 17.5956C99.7047 17.5863 99.8348 17.5294 99.9351 17.4346C100.047 17.3511 100.13 17.2338 100.171 17.0999C100.212 16.966 100.209 16.8226 100.162 16.6906L98.2491 11.1176L103.202 7.56458L103.322 7.46458C103.445 7.34846 103.522 7.19123 103.537 7.02258C103.528 6.84289 103.45 6.67367 103.319 6.55002C103.188 6.42638 103.015 6.35783 102.835 6.35858Z" fill="#25333C"/>
</g>
</svg>
