<svg width="104" height="18" viewBox="0 0 104 18" fill="none" xmlns="http://www.w3.org/2000/svg">
<path d="M17.806 6.22284H11.729L9.88202 0.711836C9.83481 0.583263 9.74927 0.47228 9.63696 0.393879C9.52466 0.315478 9.39099 0.273437 9.25402 0.273438C9.11705 0.273438 8.98339 0.315478 8.87108 0.393879C8.75877 0.47228 8.67323 0.583263 8.62602 0.711836L6.77902 6.22284H0.661022C0.485876 6.22336 0.318054 6.29317 0.194207 6.41702C0.0703594 6.54087 0.000549073 6.70869 2.15219e-05 6.88384C-0.000333026 6.92151 0.0036941 6.95909 0.0120216 6.99584C0.0207968 7.08931 0.0501917 7.17968 0.0980898 7.26044C0.145988 7.34119 0.211197 7.41031 0.289022 7.46284L5.28402 10.9828L3.36702 16.5548C3.32166 16.687 3.31918 16.83 3.35995 16.9636C3.40071 17.0972 3.48263 17.2145 3.59402 17.2988C3.69726 17.3915 3.82783 17.448 3.96602 17.4598C4.11478 17.4491 4.2577 17.3976 4.37902 17.3108L9.25002 13.8368L14.125 17.3108C14.2454 17.3993 14.3889 17.4511 14.538 17.4598C14.6757 17.4505 14.8058 17.3936 14.906 17.2988C15.0184 17.2154 15.1011 17.0981 15.1419 16.9642C15.1828 16.8303 15.1797 16.6868 15.133 16.5548L13.22 10.9818L18.173 7.42884L18.293 7.32884C18.4163 7.21272 18.4928 7.05549 18.508 6.88684C18.4988 6.70715 18.4207 6.53792 18.29 6.41428C18.1593 6.29064 17.9859 6.22208 17.806 6.22284Z" fill="#25333C"/>
<path d="M39.0631 6.22284H32.9861L31.1391 0.711836C31.0919 0.583263 31.0064 0.47228 30.894 0.393879C30.7817 0.315478 30.6481 0.273437 30.5111 0.273438C30.3741 0.273438 30.2405 0.315478 30.1282 0.393879C30.0159 0.47228 29.9303 0.583263 29.8831 0.711836L28.0361 6.22284H21.9181C21.743 6.22336 21.5751 6.29317 21.4513 6.41702C21.3274 6.54087 21.2576 6.70869 21.2571 6.88384C21.2567 6.92151 21.2608 6.95909 21.2691 6.99584C21.2779 7.08931 21.3073 7.17968 21.3552 7.26044C21.4031 7.34119 21.4683 7.41031 21.5461 7.46284L26.5411 10.9828L24.6241 16.5548C24.5787 16.687 24.5763 16.83 24.617 16.9636C24.6578 17.0972 24.7397 17.2145 24.8511 17.2988C24.9543 17.3915 25.0849 17.448 25.2231 17.4598C25.3719 17.4491 25.5148 17.3976 25.6361 17.3108L30.5071 13.8368L35.3821 17.3108C35.5025 17.3993 35.6459 17.4511 35.7951 17.4598C35.9327 17.4505 36.0629 17.3936 36.1631 17.2988C36.2755 17.2154 36.3582 17.0981 36.399 16.9642C36.4399 16.8303 36.4367 16.6868 36.3901 16.5548L34.4771 10.9818L39.4301 7.42884L39.5501 7.32884C39.6734 7.21272 39.7498 7.05549 39.7651 6.88684C39.7558 6.70715 39.6778 6.53792 39.547 6.41428C39.4163 6.29064 39.243 6.22208 39.0631 6.22284Z" fill="#25333C"/>
<path d="M60.3199 6.22284H54.2429L52.3959 0.711836C52.3487 0.583263 52.2632 0.47228 52.1509 0.393879C52.0386 0.315478 51.9049 0.273437 51.7679 0.273438C51.631 0.273438 51.4973 0.315478 51.385 0.393879C51.2727 0.47228 51.1872 0.583263 51.1399 0.711836L49.2929 6.22284H43.1749C42.9998 6.22336 42.832 6.29317 42.7081 6.41702C42.5843 6.54087 42.5145 6.70869 42.5139 6.88384C42.5136 6.92151 42.5176 6.95909 42.5259 6.99584C42.5347 7.08931 42.5641 7.17968 42.612 7.26044C42.6599 7.34119 42.7251 7.41031 42.8029 7.46284L47.7979 10.9828L45.8809 16.5548C45.8356 16.687 45.8331 16.83 45.8739 16.9636C45.9146 17.0972 45.9965 17.2145 46.1079 17.2988C46.2112 17.3915 46.3418 17.448 46.4799 17.4598C46.6287 17.4491 46.7716 17.3976 46.8929 17.3108L51.7639 13.8368L56.6389 17.3108C56.7593 17.3993 56.9028 17.4511 57.0519 17.4598C57.1896 17.4505 57.3197 17.3936 57.4199 17.2988C57.5323 17.2154 57.615 17.0981 57.6558 16.9642C57.6967 16.8303 57.6936 16.6868 57.6469 16.5548L55.7339 10.9818L60.6869 7.42884L60.8069 7.32884C60.9302 7.21272 61.0067 7.05549 61.0219 6.88684C61.0127 6.70715 60.9346 6.53792 60.8039 6.41428C60.6732 6.29064 60.4999 6.22208 60.3199 6.22284Z" fill="#25333C"/>
<g opacity="0.2">
<path opacity="0.2" d="M81.578 6.22284H75.501L73.654 0.711836C73.6068 0.583263 73.5212 0.47228 73.4089 0.393879C73.2966 0.315478 73.163 0.273437 73.026 0.273438C72.889 0.273438 72.7554 0.315478 72.6431 0.393879C72.5307 0.47228 72.4452 0.583263 72.398 0.711836L70.551 6.22284H64.433C64.2578 6.22336 64.09 6.29317 63.9662 6.41702C63.8423 6.54087 63.7725 6.70869 63.772 6.88384C63.7716 6.92151 63.7757 6.95909 63.784 6.99584C63.7928 7.08931 63.8222 7.17968 63.8701 7.26044C63.918 7.34119 63.9832 7.41031 64.061 7.46284L69.056 10.9828L67.139 16.5548C67.0936 16.687 67.0912 16.83 67.1319 16.9636C67.1727 17.0972 67.2546 17.2145 67.366 17.2988C67.4692 17.3915 67.5998 17.448 67.738 17.4598C67.8868 17.4491 68.0297 17.3976 68.151 17.3108L73.022 13.8368L77.897 17.3108C78.0174 17.3993 78.1608 17.4511 78.31 17.4598C78.4476 17.4505 78.5777 17.3936 78.678 17.2988C78.7904 17.2154 78.873 17.0981 78.9139 16.9642C78.9547 16.8303 78.9516 16.6868 78.905 16.5548L76.992 10.9818L81.945 7.42884L82.065 7.32884C82.1883 7.21272 82.2647 7.05549 82.28 6.88684C82.2707 6.70715 82.1927 6.53792 82.0619 6.41428C81.9312 6.29064 81.7579 6.22208 81.578 6.22284Z" fill="#25333C"/>
</g>
<g opacity="0.2">
<path opacity="0.2" d="M102.835 6.22284H96.7581L94.9111 0.711836C94.8639 0.583263 94.7783 0.47228 94.666 0.393879C94.5537 0.315478 94.42 0.273437 94.2831 0.273438C94.1461 0.273438 94.0124 0.315478 93.9001 0.393879C93.7878 0.47228 93.7023 0.583263 93.6551 0.711836L91.8081 6.22284H85.6901C85.5149 6.22336 85.3471 6.29317 85.2233 6.41702C85.0994 6.54087 85.0296 6.70869 85.0291 6.88384C85.0287 6.92151 85.0327 6.95909 85.0411 6.99584C85.0498 7.08931 85.0792 7.17968 85.1271 7.26044C85.175 7.34119 85.2402 7.41031 85.3181 7.46284L90.3131 10.9828L88.3961 16.5548C88.3507 16.687 88.3482 16.83 88.389 16.9636C88.4298 17.0972 88.5117 17.2145 88.6231 17.2988C88.7263 17.3915 88.8569 17.448 88.9951 17.4598C89.1438 17.4491 89.2868 17.3976 89.4081 17.3108L94.2791 13.8368L99.1541 17.3108C99.2745 17.3993 99.4179 17.4511 99.5671 17.4598C99.7047 17.4505 99.8348 17.3936 99.9351 17.2988C100.047 17.2154 100.13 17.0981 100.171 16.9642C100.212 16.8303 100.209 16.6868 100.162 16.5548L98.2491 10.9818L103.202 7.42884L103.322 7.32884C103.445 7.21272 103.522 7.05549 103.537 6.88684C103.528 6.70715 103.45 6.53792 103.319 6.41428C103.188 6.29064 103.015 6.22208 102.835 6.22284Z" fill="#25333C"/>
</g>
</svg>
