<svg width="104" height="18" viewBox="0 0 104 18" fill="none" xmlns="http://www.w3.org/2000/svg">
<path d="M17.806 6.76385H11.729L9.88202 1.25285C9.83481 1.12428 9.74927 1.0133 9.63696 0.934894C9.52466 0.856493 9.39099 0.814453 9.25402 0.814453C9.11705 0.814453 8.98339 0.856493 8.87108 0.934894C8.75877 1.0133 8.67323 1.12428 8.62602 1.25285L6.77902 6.76385H0.661022C0.485876 6.76438 0.318054 6.83419 0.194207 6.95804C0.0703594 7.08188 0.000549073 7.24971 2.15219e-05 7.42485C-0.000333026 7.46252 0.0036941 7.50011 0.0120216 7.53685C0.0207968 7.63033 0.0501917 7.7207 0.0980898 7.80145C0.145988 7.8822 0.211197 7.95133 0.289022 8.00385L5.28402 11.5239L3.36702 17.0959C3.32166 17.228 3.31918 17.371 3.35995 17.5046C3.40071 17.6382 3.48263 17.7556 3.59402 17.8399C3.69726 17.9325 3.82783 17.989 3.96602 18.0009C4.11478 17.9902 4.2577 17.9386 4.37902 17.8519L9.25002 14.3779L14.125 17.8519C14.2454 17.9403 14.3889 17.9921 14.538 18.0009C14.6757 17.9915 14.8058 17.9346 14.906 17.8399C15.0184 17.7564 15.1011 17.6391 15.1419 17.5052C15.1828 17.3713 15.1797 17.2278 15.133 17.0959L13.22 11.5229L18.173 7.96985L18.293 7.86985C18.4163 7.75374 18.4928 7.59651 18.508 7.42785C18.4988 7.24816 18.4207 7.07894 18.29 6.9553C18.1593 6.83166 17.9859 6.7631 17.806 6.76385Z" fill="#25333C"/>
<path d="M39.0631 6.76385H32.9861L31.1391 1.25285C31.0919 1.12428 31.0064 1.0133 30.894 0.934894C30.7817 0.856493 30.6481 0.814453 30.5111 0.814453C30.3741 0.814453 30.2405 0.856493 30.1282 0.934894C30.0159 1.0133 29.9303 1.12428 29.8831 1.25285L28.0361 6.76385H21.9181C21.743 6.76438 21.5751 6.83419 21.4513 6.95804C21.3274 7.08188 21.2576 7.24971 21.2571 7.42485C21.2567 7.46252 21.2608 7.50011 21.2691 7.53685C21.2779 7.63033 21.3073 7.7207 21.3552 7.80145C21.4031 7.8822 21.4683 7.95133 21.5461 8.00385L26.5411 11.5239L24.6241 17.0959C24.5787 17.228 24.5763 17.371 24.617 17.5046C24.6578 17.6382 24.7397 17.7556 24.8511 17.8399C24.9543 17.9325 25.0849 17.989 25.2231 18.0009C25.3719 17.9902 25.5148 17.9386 25.6361 17.8519L30.5071 14.3779L35.3821 17.8519C35.5025 17.9403 35.6459 17.9921 35.7951 18.0009C35.9327 17.9915 36.0629 17.9346 36.1631 17.8399C36.2755 17.7564 36.3582 17.6391 36.399 17.5052C36.4399 17.3713 36.4367 17.2278 36.3901 17.0959L34.4771 11.5229L39.4301 7.96985L39.5501 7.86985C39.6734 7.75374 39.7498 7.59651 39.7651 7.42785C39.7558 7.24816 39.6778 7.07894 39.547 6.9553C39.4163 6.83166 39.243 6.7631 39.0631 6.76385Z" fill="#25333C"/>
<path d="M60.3199 6.76385H54.2429L52.3959 1.25285C52.3487 1.12428 52.2632 1.0133 52.1509 0.934894C52.0386 0.856493 51.9049 0.814453 51.7679 0.814453C51.631 0.814453 51.4973 0.856493 51.385 0.934894C51.2727 1.0133 51.1872 1.12428 51.1399 1.25285L49.2929 6.76385H43.1749C42.9998 6.76438 42.832 6.83419 42.7081 6.95804C42.5843 7.08188 42.5145 7.24971 42.5139 7.42485C42.5136 7.46252 42.5176 7.50011 42.5259 7.53685C42.5347 7.63033 42.5641 7.7207 42.612 7.80145C42.6599 7.8822 42.7251 7.95133 42.8029 8.00385L47.7979 11.5239L45.8809 17.0959C45.8356 17.228 45.8331 17.371 45.8739 17.5046C45.9146 17.6382 45.9965 17.7556 46.1079 17.8399C46.2112 17.9325 46.3418 17.989 46.4799 18.0009C46.6287 17.9902 46.7716 17.9386 46.8929 17.8519L51.7639 14.3779L56.6389 17.8519C56.7593 17.9403 56.9028 17.9921 57.0519 18.0009C57.1896 17.9915 57.3197 17.9346 57.4199 17.8399C57.5323 17.7564 57.615 17.6391 57.6558 17.5052C57.6967 17.3713 57.6936 17.2278 57.6469 17.0959L55.7339 11.5229L60.6869 7.96985L60.8069 7.86985C60.9302 7.75374 61.0067 7.59651 61.0219 7.42785C61.0127 7.24816 60.9346 7.07894 60.8039 6.9553C60.6732 6.83166 60.4999 6.7631 60.3199 6.76385Z" fill="#25333C"/>
<path d="M81.578 6.76385H75.501L73.654 1.25285C73.6068 1.12428 73.5212 1.0133 73.4089 0.934894C73.2966 0.856493 73.163 0.814453 73.026 0.814453C72.889 0.814453 72.7554 0.856493 72.6431 0.934894C72.5307 1.0133 72.4452 1.12428 72.398 1.25285L70.551 6.76385H64.433C64.2578 6.76438 64.09 6.83419 63.9662 6.95804C63.8423 7.08188 63.7725 7.24971 63.772 7.42485C63.7716 7.46252 63.7757 7.50011 63.784 7.53685C63.7928 7.63033 63.8222 7.7207 63.8701 7.80145C63.918 7.8822 63.9832 7.95133 64.061 8.00385L69.056 11.5239L67.139 17.0959C67.0936 17.228 67.0912 17.371 67.1319 17.5046C67.1727 17.6382 67.2546 17.7556 67.366 17.8399C67.4692 17.9325 67.5998 17.989 67.738 18.0009C67.8868 17.9902 68.0297 17.9386 68.151 17.8519L73.022 14.3779L77.897 17.8519C78.0174 17.9403 78.1608 17.9921 78.31 18.0009C78.4476 17.9915 78.5777 17.9346 78.678 17.8399C78.7904 17.7564 78.873 17.6391 78.9139 17.5052C78.9547 17.3713 78.9516 17.2278 78.905 17.0959L76.992 11.5229L81.945 7.96985L82.065 7.86985C82.1883 7.75374 82.2647 7.59651 82.28 7.42785C82.2707 7.24816 82.1927 7.07894 82.0619 6.9553C81.9312 6.83166 81.7579 6.7631 81.578 6.76385Z" fill="#25333C"/>
<g opacity="0.2">
<path opacity="0.2" d="M102.835 6.76385H96.7581L94.9111 1.25285C94.8639 1.12428 94.7783 1.0133 94.666 0.934894C94.5537 0.856493 94.42 0.814453 94.2831 0.814453C94.1461 0.814453 94.0124 0.856493 93.9001 0.934894C93.7878 1.0133 93.7023 1.12428 93.6551 1.25285L91.8081 6.76385H85.6901C85.5149 6.76438 85.3471 6.83419 85.2233 6.95804C85.0994 7.08188 85.0296 7.24971 85.0291 7.42485C85.0287 7.46252 85.0327 7.50011 85.0411 7.53685C85.0498 7.63033 85.0792 7.7207 85.1271 7.80145C85.175 7.8822 85.2402 7.95133 85.3181 8.00385L90.3131 11.5239L88.3961 17.0959C88.3507 17.228 88.3482 17.371 88.389 17.5046C88.4298 17.6382 88.5117 17.7556 88.6231 17.8399C88.7263 17.9325 88.8569 17.989 88.9951 18.0009C89.1438 17.9902 89.2868 17.9386 89.4081 17.8519L94.2791 14.3779L99.1541 17.8519C99.2745 17.9403 99.4179 17.9921 99.5671 18.0009C99.7047 17.9915 99.8348 17.9346 99.9351 17.8399C100.047 17.7564 100.13 17.6391 100.171 17.5052C100.212 17.3713 100.209 17.2278 100.162 17.0959L98.2491 11.5229L103.202 7.96985L103.322 7.86985C103.445 7.75374 103.522 7.59651 103.537 7.42785C103.528 7.24816 103.45 7.07894 103.319 6.9553C103.188 6.83166 103.015 6.7631 102.835 6.76385Z" fill="#25333C"/>
</g>
</svg>
