<svg width="104" height="18" viewBox="0 0 104 18" fill="none" xmlns="http://www.w3.org/2000/svg">
<path d="M17.806 5.9494H11.729L9.88202 0.438399C9.83481 0.309826 9.74927 0.198842 9.63696 0.120441C9.52466 0.0420402 9.39099 0 9.25402 0C9.11705 0 8.98339 0.0420402 8.87108 0.120441C8.75877 0.198842 8.67323 0.309826 8.62602 0.438399L6.77902 5.9494H0.661022C0.485876 5.94993 0.318054 6.01974 0.194207 6.14358C0.0703594 6.26743 0.000549073 6.43525 2.15219e-05 6.6104C-0.000333026 6.64807 0.0036941 6.68566 0.0120216 6.7224C0.0207968 6.81588 0.0501917 6.90625 0.0980898 6.987C0.145988 7.06775 0.211197 7.13688 0.289022 7.1894L5.28402 10.7094L3.36702 16.2814C3.32166 16.4135 3.31918 16.5566 3.35995 16.6902C3.40071 16.8238 3.48263 16.9411 3.59402 17.0254C3.69726 17.118 3.82783 17.1745 3.96602 17.1864C4.11478 17.1757 4.2577 17.1241 4.37902 17.0374L9.25002 13.5634L14.125 17.0374C14.2454 17.1259 14.3889 17.1776 14.538 17.1864C14.6757 17.1771 14.8058 17.1202 14.906 17.0254C15.0184 16.9419 15.1011 16.8246 15.1419 16.6907C15.1828 16.5569 15.1797 16.4134 15.133 16.2814L13.22 10.7084L18.173 7.1554L18.293 7.0554C18.4163 6.93928 18.4928 6.78205 18.508 6.6134C18.4988 6.43371 18.4207 6.26449 18.29 6.14085C18.1593 6.01721 17.9859 5.94865 17.806 5.9494Z" fill="#25333C"/>
<path d="M39.0631 5.9494H32.9861L31.1391 0.438399C31.0919 0.309826 31.0064 0.198842 30.894 0.120441C30.7817 0.0420402 30.6481 0 30.5111 0C30.3741 0 30.2405 0.0420402 30.1282 0.120441C30.0159 0.198842 29.9303 0.309826 29.8831 0.438399L28.0361 5.9494H21.9181C21.743 5.94993 21.5751 6.01974 21.4513 6.14358C21.3274 6.26743 21.2576 6.43525 21.2571 6.6104C21.2567 6.64807 21.2608 6.68566 21.2691 6.7224C21.2779 6.81588 21.3073 6.90625 21.3552 6.987C21.4031 7.06775 21.4683 7.13688 21.5461 7.1894L26.5411 10.7094L24.6241 16.2814C24.5787 16.4135 24.5763 16.5566 24.617 16.6902C24.6578 16.8238 24.7397 16.9411 24.8511 17.0254C24.9543 17.118 25.0849 17.1745 25.2231 17.1864C25.3719 17.1757 25.5148 17.1241 25.6361 17.0374L30.5071 13.5634L35.3821 17.0374C35.5025 17.1259 35.6459 17.1776 35.7951 17.1864C35.9327 17.1771 36.0629 17.1202 36.1631 17.0254C36.2755 16.9419 36.3582 16.8246 36.399 16.6907C36.4399 16.5569 36.4367 16.4134 36.3901 16.2814L34.4771 10.7084L39.4301 7.1554L39.5501 7.0554C39.6734 6.93928 39.7498 6.78205 39.7651 6.6134C39.7558 6.43371 39.6778 6.26449 39.547 6.14085C39.4163 6.01721 39.243 5.94865 39.0631 5.9494Z" fill="#25333C"/>
<path d="M60.3199 5.9494H54.2429L52.3959 0.438399C52.3487 0.309826 52.2632 0.198842 52.1509 0.120441C52.0386 0.0420402 51.9049 0 51.7679 0C51.631 0 51.4973 0.0420402 51.385 0.120441C51.2727 0.198842 51.1872 0.309826 51.1399 0.438399L49.2929 5.9494H43.1749C42.9998 5.94993 42.832 6.01974 42.7081 6.14358C42.5843 6.26743 42.5145 6.43525 42.5139 6.6104C42.5136 6.64807 42.5176 6.68566 42.5259 6.7224C42.5347 6.81588 42.5641 6.90625 42.612 6.987C42.6599 7.06775 42.7251 7.13688 42.8029 7.1894L47.7979 10.7094L45.8809 16.2814C45.8356 16.4135 45.8331 16.5566 45.8739 16.6902C45.9146 16.8238 45.9965 16.9411 46.1079 17.0254C46.2112 17.118 46.3418 17.1745 46.4799 17.1864C46.6287 17.1757 46.7716 17.1241 46.8929 17.0374L51.7639 13.5634L56.6389 17.0374C56.7593 17.1259 56.9028 17.1776 57.0519 17.1864C57.1896 17.1771 57.3197 17.1202 57.4199 17.0254C57.5323 16.9419 57.615 16.8246 57.6558 16.6907C57.6967 16.5569 57.6936 16.4134 57.6469 16.2814L55.7339 10.7084L60.6869 7.1554L60.8069 7.0554C60.9302 6.93928 61.0067 6.78205 61.0219 6.6134C61.0127 6.43371 60.9346 6.26449 60.8039 6.14085C60.6732 6.01721 60.4999 5.94865 60.3199 5.9494Z" fill="#25333C"/>
<path d="M81.578 5.9494H75.501L73.654 0.438399C73.6068 0.309826 73.5212 0.198842 73.4089 0.120441C73.2966 0.0420402 73.163 0 73.026 0C72.889 0 72.7554 0.0420402 72.6431 0.120441C72.5307 0.198842 72.4452 0.309826 72.398 0.438399L70.551 5.9494H64.433C64.2578 5.94993 64.09 6.01974 63.9662 6.14358C63.8423 6.26743 63.7725 6.43525 63.772 6.6104C63.7716 6.64807 63.7757 6.68566 63.784 6.7224C63.7928 6.81588 63.8222 6.90625 63.8701 6.987C63.918 7.06775 63.9832 7.13688 64.061 7.1894L69.056 10.7094L67.139 16.2814C67.0936 16.4135 67.0912 16.5566 67.1319 16.6902C67.1727 16.8238 67.2546 16.9411 67.366 17.0254C67.4692 17.118 67.5998 17.1745 67.738 17.1864C67.8868 17.1757 68.0297 17.1241 68.151 17.0374L73.022 13.5634L77.897 17.0374C78.0174 17.1259 78.1608 17.1776 78.31 17.1864C78.4476 17.1771 78.5777 17.1202 78.678 17.0254C78.7904 16.9419 78.873 16.8246 78.9139 16.6907C78.9547 16.5569 78.9516 16.4134 78.905 16.2814L76.992 10.7084L81.945 7.1554L82.065 7.0554C82.1883 6.93928 82.2647 6.78205 82.28 6.6134C82.2707 6.43371 82.1927 6.26449 82.0619 6.14085C81.9312 6.01721 81.7579 5.94865 81.578 5.9494Z" fill="#25333C"/>
<path d="M102.835 5.9494H96.7581L94.9111 0.438399C94.8639 0.309826 94.7783 0.198842 94.666 0.120441C94.5537 0.0420402 94.42 0 94.2831 0C94.1461 0 94.0124 0.0420402 93.9001 0.120441C93.7878 0.198842 93.7023 0.309826 93.6551 0.438399L91.8081 5.9494H85.6901C85.5149 5.94993 85.3471 6.01974 85.2233 6.14358C85.0994 6.26743 85.0296 6.43525 85.0291 6.6104C85.0287 6.64807 85.0327 6.68566 85.0411 6.7224C85.0498 6.81588 85.0792 6.90625 85.1271 6.987C85.175 7.06775 85.2402 7.13688 85.3181 7.1894L90.3131 10.7094L88.3961 16.2814C88.3507 16.4135 88.3482 16.5566 88.389 16.6902C88.4298 16.8238 88.5117 16.9411 88.6231 17.0254C88.7263 17.118 88.8569 17.1745 88.9951 17.1864C89.1438 17.1757 89.2868 17.1241 89.4081 17.0374L94.2791 13.5634L99.1541 17.0374C99.2745 17.1259 99.4179 17.1776 99.5671 17.1864C99.7047 17.1771 99.8348 17.1202 99.9351 17.0254C100.047 16.9419 100.13 16.8246 100.171 16.6907C100.212 16.5569 100.209 16.4134 100.162 16.2814L98.2491 10.7084L103.202 7.1554L103.322 7.0554C103.445 6.93928 103.522 6.78205 103.537 6.6134C103.528 6.43371 103.45 6.26449 103.319 6.14085C103.188 6.01721 103.015 5.94865 102.835 5.9494Z" fill="#25333C"/>
</svg>
