<svg width="33" height="33" viewBox="0 0 33 33" fill="none" xmlns="http://www.w3.org/2000/svg">
<path d="M14.5 4.18164H4C3.20435 4.18164 2.44129 4.49771 1.87868 5.06032C1.31607 5.62293 1 6.38599 1 7.18164V28.1816C1 28.9773 1.31607 29.7404 1.87868 30.303C2.44129 30.8656 3.20435 31.1816 4 31.1816H25C25.7956 31.1816 26.5587 30.8656 27.1213 30.303C27.6839 29.7404 28 28.9773 28 28.1816V17.6816" stroke="#0E8543" stroke-width="2" stroke-linecap="round" stroke-linejoin="round"/>
<path d="M25.75 1.93194C26.3475 1.33865 27.1557 1.00634 27.9977 1.00782C28.8397 1.00929 29.6468 1.34442 30.2421 1.9398C30.8375 2.53518 31.1726 3.34226 31.1741 4.18424C31.1756 5.02623 30.8433 5.83448 30.25 6.43194L16 20.6819L10 22.1819L11.5 16.1819L25.75 1.93194Z" stroke="#0E8543" stroke-width="2" stroke-linecap="round" stroke-linejoin="round"/>
</svg>
