<svg width="20" height="18" viewBox="0 0 20 18" fill="none" xmlns="http://www.w3.org/2000/svg">
<path opacity="0.3" d="M18.3351 5.9494H12.2581L10.4111 0.438399C10.3639 0.309826 10.2783 0.198842 10.166 0.120441C10.0537 0.0420402 9.92004 0 9.78307 0C9.64611 0 9.51244 0.0420402 9.40013 0.120441C9.28782 0.198842 9.20229 0.309826 9.15508 0.438399L7.30807 5.9494H1.19007C1.01493 5.94993 0.847107 6.01974 0.72326 6.14358C0.599412 6.26743 0.529602 6.43525 0.529074 6.6104C0.52872 6.64807 0.532747 6.68566 0.541074 6.7224C0.54985 6.81588 0.579244 6.90625 0.627142 6.987C0.675041 7.06775 0.74025 7.13688 0.818074 7.1894L5.81307 10.7094L3.89607 16.2814C3.85071 16.4135 3.84824 16.5566 3.889 16.6902C3.92976 16.8238 4.01168 16.9411 4.12307 17.0254C4.22632 17.118 4.35689 17.1745 4.49507 17.1864C4.64383 17.1757 4.78675 17.1241 4.90807 17.0374L9.77907 13.5634L14.6541 17.0374C14.7745 17.1259 14.9179 17.1776 15.0671 17.1864C15.2047 17.1771 15.3348 17.1202 15.4351 17.0254C15.5475 16.9419 15.6301 16.8246 15.671 16.6907C15.7118 16.5569 15.7087 16.4134 15.6621 16.2814L13.7491 10.7084L18.7021 7.1554L18.8221 7.0554C18.9453 6.93928 19.0218 6.78205 19.0371 6.6134C19.0278 6.43371 18.9497 6.26449 18.819 6.14085C18.6883 6.01721 18.515 5.94865 18.3351 5.9494Z" fill="#FF9100"/>
</svg>
