<svg width="19" height="18" viewBox="0 0 19 18" fill="none" xmlns="http://www.w3.org/2000/svg">
<path d="M17.806 5.9494H11.729L9.88202 0.438399C9.83481 0.309826 9.74927 0.198842 9.63696 0.120441C9.52466 0.0420402 9.39099 0 9.25402 0C9.11705 0 8.98339 0.0420402 8.87108 0.120441C8.75877 0.198842 8.67323 0.309826 8.62602 0.438399L6.77902 5.9494H0.661022C0.485876 5.94993 0.318054 6.01974 0.194207 6.14358C0.0703594 6.26743 0.000549073 6.43525 2.15219e-05 6.6104C-0.000333026 6.64807 0.0036941 6.68566 0.0120216 6.7224C0.0207968 6.81588 0.0501917 6.90625 0.0980898 6.987C0.145988 7.06775 0.211197 7.13688 0.289022 7.1894L5.28402 10.7094L3.36702 16.2814C3.32166 16.4135 3.31918 16.5566 3.35995 16.6902C3.40071 16.8238 3.48263 16.9411 3.59402 17.0254C3.69726 17.118 3.82783 17.1745 3.96602 17.1864C4.11478 17.1757 4.2577 17.1241 4.37902 17.0374L9.25002 13.5634L14.125 17.0374C14.2454 17.1259 14.3889 17.1776 14.538 17.1864C14.6757 17.1771 14.8058 17.1202 14.906 17.0254C15.0184 16.9419 15.1011 16.8246 15.1419 16.6907C15.1828 16.5569 15.1797 16.4134 15.133 16.2814L13.22 10.7084L18.173 7.1554L18.293 7.0554C18.4163 6.93928 18.4928 6.78205 18.508 6.6134C18.4988 6.43371 18.4207 6.26449 18.29 6.14085C18.1593 6.01721 17.9859 5.94865 17.806 5.9494Z" fill="#FF9100"/>
</svg>
