<svg width="107" height="18" viewBox="0 0 107 18" fill="none" xmlns="http://www.w3.org/2000/svg">
<path d="M17.806 5.9494H11.729L9.88202 0.438399C9.83481 0.309826 9.74927 0.198842 9.63696 0.120441C9.52466 0.0420402 9.39099 0 9.25402 0C9.11705 0 8.98339 0.0420402 8.87108 0.120441C8.75877 0.198842 8.67323 0.309826 8.62602 0.438399L6.77902 5.9494H0.661022C0.485876 5.94993 0.318054 6.01974 0.194207 6.14358C0.0703594 6.26743 0.000549073 6.43525 2.15219e-05 6.6104C-0.000333026 6.64807 0.0036941 6.68566 0.0120216 6.7224C0.0207968 6.81588 0.0501917 6.90625 0.0980898 6.987C0.145988 7.06775 0.211197 7.13688 0.289022 7.1894L5.28402 10.7094L3.36702 16.2814C3.32166 16.4135 3.31918 16.5566 3.35995 16.6902C3.40071 16.8238 3.48263 16.9411 3.59402 17.0254C3.69726 17.118 3.82783 17.1745 3.96602 17.1864C4.11478 17.1757 4.2577 17.1241 4.37902 17.0374L9.25002 13.5634L14.125 17.0374C14.2454 17.1259 14.3889 17.1776 14.538 17.1864C14.6757 17.1771 14.8058 17.1202 14.906 17.0254C15.0184 16.9419 15.1011 16.8246 15.1419 16.6907C15.1828 16.5569 15.1797 16.4134 15.133 16.2814L13.22 10.7084L18.173 7.1554L18.293 7.0554C18.4163 6.93928 18.4928 6.78205 18.508 6.6134C18.4988 6.43371 18.4207 6.26449 18.29 6.14085C18.1593 6.01721 17.9859 5.94865 17.806 5.9494Z" fill="#FF9100" fill-opacity="0.2"/>
<path d="M39.806 5.9494H33.729L31.882 0.438399C31.8348 0.309826 31.7493 0.198842 31.637 0.120441C31.5247 0.0420402 31.391 0 31.254 0C31.1171 0 30.9834 0.0420402 30.8711 0.120441C30.7588 0.198842 30.6732 0.309826 30.626 0.438399L28.779 5.9494H22.661C22.4859 5.94993 22.3181 6.01974 22.1942 6.14358C22.0704 6.26743 22.0005 6.43525 22 6.6104C21.9997 6.64807 22.0037 6.68566 22.012 6.7224C22.0208 6.81588 22.0502 6.90625 22.0981 6.987C22.146 7.06775 22.2112 7.13688 22.289 7.1894L27.284 10.7094L25.367 16.2814C25.3217 16.4135 25.3192 16.5566 25.3599 16.6902C25.4007 16.8238 25.4826 16.9411 25.594 17.0254C25.6973 17.118 25.8278 17.1745 25.966 17.1864C26.1148 17.1757 26.2577 17.1241 26.379 17.0374L31.25 13.5634L36.125 17.0374C36.2454 17.1259 36.3889 17.1776 36.538 17.1864C36.6757 17.1771 36.8058 17.1202 36.906 17.0254C37.0184 16.9419 37.1011 16.8246 37.1419 16.6907C37.1828 16.5569 37.1797 16.4134 37.133 16.2814L35.22 10.7084L40.173 7.1554L40.293 7.0554C40.4163 6.93928 40.4928 6.78205 40.508 6.6134C40.4988 6.43371 40.4207 6.26449 40.29 6.14085C40.1593 6.01721 39.9859 5.94865 39.806 5.9494Z" fill="#FF9100" fill-opacity="0.2"/>
<path d="M61.806 5.9494H55.729L53.882 0.438399C53.8348 0.309826 53.7493 0.198842 53.637 0.120441C53.5247 0.0420402 53.391 0 53.254 0C53.1171 0 52.9834 0.0420402 52.8711 0.120441C52.7588 0.198842 52.6732 0.309826 52.626 0.438399L50.779 5.9494H44.661C44.4859 5.94993 44.3181 6.01974 44.1942 6.14358C44.0704 6.26743 44.0005 6.43525 44 6.6104C43.9997 6.64807 44.0037 6.68566 44.012 6.7224C44.0208 6.81588 44.0502 6.90625 44.0981 6.987C44.146 7.06775 44.2112 7.13688 44.289 7.1894L49.284 10.7094L47.367 16.2814C47.3217 16.4135 47.3192 16.5566 47.3599 16.6902C47.4007 16.8238 47.4826 16.9411 47.594 17.0254C47.6973 17.118 47.8278 17.1745 47.966 17.1864C48.1148 17.1757 48.2577 17.1241 48.379 17.0374L53.25 13.5634L58.125 17.0374C58.2454 17.1259 58.3889 17.1776 58.538 17.1864C58.6757 17.1771 58.8058 17.1202 58.906 17.0254C59.0184 16.9419 59.1011 16.8246 59.1419 16.6907C59.1828 16.5569 59.1797 16.4134 59.133 16.2814L57.22 10.7084L62.173 7.1554L62.293 7.0554C62.4163 6.93928 62.4928 6.78205 62.508 6.6134C62.4988 6.43371 62.4207 6.26449 62.29 6.14085C62.1593 6.01721 61.9859 5.94865 61.806 5.9494Z" fill="#FF9100" fill-opacity="0.2"/>
<path d="M83.806 5.9494H77.729L75.882 0.438399C75.8348 0.309826 75.7493 0.198842 75.637 0.120441C75.5247 0.0420402 75.391 0 75.254 0C75.1171 0 74.9834 0.0420402 74.8711 0.120441C74.7588 0.198842 74.6732 0.309826 74.626 0.438399L72.779 5.9494H66.661C66.4859 5.94993 66.3181 6.01974 66.1942 6.14358C66.0704 6.26743 66.0005 6.43525 66 6.6104C65.9997 6.64807 66.0037 6.68566 66.012 6.7224C66.0208 6.81588 66.0502 6.90625 66.0981 6.987C66.146 7.06775 66.2112 7.13688 66.289 7.1894L71.284 10.7094L69.367 16.2814C69.3217 16.4135 69.3192 16.5566 69.3599 16.6902C69.4007 16.8238 69.4826 16.9411 69.594 17.0254C69.6973 17.118 69.8278 17.1745 69.966 17.1864C70.1148 17.1757 70.2577 17.1241 70.379 17.0374L75.25 13.5634L80.125 17.0374C80.2454 17.1259 80.3889 17.1776 80.538 17.1864C80.6757 17.1771 80.8058 17.1202 80.906 17.0254C81.0184 16.9419 81.1011 16.8246 81.1419 16.6907C81.1828 16.5569 81.1797 16.4134 81.133 16.2814L79.22 10.7084L84.173 7.1554L84.293 7.0554C84.4163 6.93928 84.4928 6.78205 84.508 6.6134C84.4988 6.43371 84.4207 6.26449 84.29 6.14085C84.1593 6.01721 83.9859 5.94865 83.806 5.9494Z" fill="#FF9100" fill-opacity="0.2"/>
<path d="M105.335 5.9494H99.2581L97.4111 0.438399C97.3639 0.309826 97.2783 0.198842 97.166 0.120441C97.0537 0.0420402 96.92 0 96.7831 0C96.6461 0 96.5124 0.0420402 96.4001 0.120441C96.2878 0.198842 96.2023 0.309826 96.1551 0.438399L94.3081 5.9494H88.1901C88.0149 5.94993 87.8471 6.01974 87.7233 6.14358C87.5994 6.26743 87.5296 6.43525 87.5291 6.6104C87.5287 6.64807 87.5327 6.68566 87.5411 6.7224C87.5498 6.81588 87.5792 6.90625 87.6271 6.987C87.675 7.06775 87.7402 7.13688 87.8181 7.1894L92.8131 10.7094L90.8961 16.2814C90.8507 16.4135 90.8482 16.5566 90.889 16.6902C90.9298 16.8238 91.0117 16.9411 91.1231 17.0254C91.2263 17.118 91.3569 17.1745 91.4951 17.1864C91.6438 17.1757 91.7868 17.1241 91.9081 17.0374L96.7791 13.5634L101.654 17.0374C101.774 17.1259 101.918 17.1776 102.067 17.1864C102.205 17.1771 102.335 17.1202 102.435 17.0254C102.547 16.9419 102.63 16.8246 102.671 16.6907C102.712 16.5569 102.709 16.4134 102.662 16.2814L100.749 10.7084L105.702 7.1554L105.822 7.0554C105.945 6.93928 106.022 6.78205 106.037 6.6134C106.028 6.43371 105.95 6.26449 105.819 6.14085C105.688 6.01721 105.515 5.94865 105.335 5.9494Z" fill="#FF9100" fill-opacity="0.2"/>
</svg>
